<svg width="428" height="926" viewBox="0 0 428 926" fill="none" xmlns="http://www.w3.org/2000/svg">
<rect width="428" height="926" fill="#1C2D35"/>
<path d="M198.67 907V886H201.88L208.9 900.94L215.92 886H219.13V907H216.94V888.73L208.9 905.5L200.83 888.67V907H198.67ZM230.661 907.3C229.301 907.3 228.071 906.97 226.971 906.31C225.871 905.63 225.001 904.72 224.361 903.58C223.721 902.42 223.401 901.12 223.401 899.68C223.401 898.24 223.701 896.95 224.301 895.81C224.921 894.67 225.751 893.77 226.791 893.11C227.831 892.45 228.991 892.12 230.271 892.12C231.571 892.12 232.721 892.45 233.721 893.11C234.741 893.75 235.541 894.63 236.121 895.75C236.721 896.85 237.021 898.1 237.021 899.5V900.16H225.531C225.611 901.16 225.881 902.06 226.341 902.86C226.821 903.64 227.441 904.26 228.201 904.72C228.981 905.16 229.831 905.38 230.751 905.38C231.511 905.38 232.241 905.25 232.941 904.99C233.661 904.71 234.271 904.34 234.771 903.88L236.151 905.35C235.311 906.01 234.441 906.5 233.541 906.82C232.641 907.14 231.681 907.3 230.661 907.3ZM225.591 898.6H234.861C234.761 897.72 234.491 896.94 234.051 896.26C233.631 895.56 233.091 895.01 232.431 894.61C231.791 894.21 231.071 894.01 230.271 894.01C229.471 894.01 228.741 894.21 228.081 894.61C227.421 894.99 226.871 895.53 226.431 896.23C226.011 896.91 225.731 897.7 225.591 898.6ZM245.9 907.3C244.64 907.3 243.68 907 243.02 906.4C242.38 905.78 242.06 904.89 242.06 903.73V894.16H239.03V892.36H242.06V888.34L244.25 887.83V892.36H248.45V894.16H244.25V903.16C244.25 903.94 244.41 904.5 244.73 904.84C245.07 905.18 245.62 905.35 246.38 905.35C246.76 905.35 247.1 905.32 247.4 905.26C247.7 905.2 248.05 905.1 248.45 904.96V906.91C248.05 907.05 247.63 907.15 247.19 907.21C246.75 907.27 246.32 907.3 245.9 907.3ZM256.188 907.27C255.148 907.27 254.228 907.08 253.428 906.7C252.628 906.32 251.998 905.8 251.538 905.14C251.098 904.46 250.878 903.68 250.878 902.8C250.878 901.92 251.108 901.16 251.568 900.52C252.028 899.86 252.668 899.35 253.488 898.99C254.308 898.63 255.268 898.45 256.368 898.45C257.208 898.45 257.998 898.54 258.738 898.72C259.498 898.9 260.198 899.19 260.838 899.59V897.58C260.838 896.38 260.518 895.48 259.878 894.88C259.238 894.26 258.298 893.95 257.058 893.95C256.378 893.95 255.678 894.05 254.958 894.25C254.258 894.45 253.478 894.77 252.618 895.21L251.808 893.53C253.768 892.59 255.608 892.12 257.328 892.12C259.148 892.12 260.548 892.57 261.528 893.47C262.508 894.35 262.998 895.62 262.998 897.28V907H260.838V905.29C260.198 905.95 259.488 906.45 258.708 906.79C257.928 907.11 257.088 907.27 256.188 907.27ZM252.978 902.74C252.978 903.6 253.308 904.29 253.968 904.81C254.648 905.33 255.538 905.59 256.638 905.59C257.458 905.59 258.208 905.45 258.888 905.17C259.588 904.89 260.238 904.47 260.838 903.91V901.09C260.218 900.73 259.578 900.47 258.918 900.31C258.258 900.13 257.518 900.04 256.698 900.04C255.578 900.04 254.678 900.29 253.998 900.79C253.318 901.27 252.978 901.92 252.978 902.74Z" fill="white"/>
<path d="M193.74 868V859.44H191.56V858.24H193.74V856.2C193.74 855.24 193.993 854.5 194.5 853.98C195.007 853.46 195.727 853.2 196.66 853.2C196.927 853.2 197.167 853.213 197.38 853.24C197.607 853.267 197.807 853.313 197.98 853.38V854.7C197.767 854.633 197.573 854.587 197.4 854.56C197.227 854.533 197.027 854.52 196.8 854.52C196.24 854.52 195.833 854.66 195.58 854.94C195.327 855.207 195.2 855.633 195.2 856.22V858.24H197.98V859.44H195.2V868H193.74ZM199.902 868V858.24H201.362V860.24C201.616 859.56 201.976 859.033 202.442 858.66C202.922 858.273 203.469 858.08 204.082 858.08C204.256 858.08 204.416 858.093 204.562 858.12C204.709 858.133 204.856 858.167 205.002 858.22V859.54C204.842 859.487 204.669 859.447 204.482 859.42C204.309 859.38 204.142 859.36 203.982 859.36C203.382 859.36 202.856 859.533 202.402 859.88C201.962 860.227 201.616 860.713 201.362 861.34V868H199.902ZM210.648 868.16C209.741 868.16 208.928 867.94 208.208 867.5C207.488 867.06 206.921 866.46 206.508 865.7C206.095 864.94 205.888 864.08 205.888 863.12C205.888 862.16 206.095 861.3 206.508 860.54C206.921 859.78 207.488 859.18 208.208 858.74C208.928 858.3 209.741 858.08 210.648 858.08C211.541 858.08 212.341 858.3 213.048 858.74C213.768 859.18 214.335 859.78 214.748 860.54C215.161 861.3 215.368 862.16 215.368 863.12C215.368 864.08 215.161 864.94 214.748 865.7C214.335 866.46 213.768 867.06 213.048 867.5C212.341 867.94 211.541 868.16 210.648 868.16ZM210.628 866.88C211.268 866.88 211.835 866.72 212.328 866.4C212.821 866.067 213.208 865.613 213.488 865.04C213.781 864.467 213.928 863.827 213.928 863.12C213.928 862.4 213.781 861.76 213.488 861.2C213.208 860.627 212.821 860.18 212.328 859.86C211.835 859.527 211.268 859.36 210.628 859.36C209.988 859.36 209.421 859.527 208.928 859.86C208.435 860.18 208.041 860.627 207.748 861.2C207.468 861.76 207.328 862.4 207.328 863.12C207.328 863.827 207.468 864.467 207.748 865.04C208.041 865.613 208.435 866.067 208.928 866.4C209.421 866.72 209.988 866.88 210.628 866.88ZM217.93 868V858.24H219.39V859.76C219.763 859.2 220.19 858.78 220.67 858.5C221.15 858.22 221.69 858.08 222.29 858.08C222.983 858.08 223.59 858.253 224.11 858.6C224.63 858.933 225.023 859.393 225.29 859.98C225.676 859.353 226.136 858.88 226.67 858.56C227.216 858.24 227.843 858.08 228.55 858.08C229.203 858.08 229.776 858.233 230.27 858.54C230.776 858.847 231.17 859.273 231.45 859.82C231.73 860.353 231.87 860.98 231.87 861.7V868H230.41V862.06C230.41 861.207 230.196 860.533 229.77 860.04C229.343 859.547 228.756 859.3 228.01 859.3C227.503 859.3 227.043 859.427 226.63 859.68C226.23 859.933 225.876 860.32 225.57 860.84C225.596 860.973 225.616 861.113 225.63 861.26C225.643 861.407 225.65 861.553 225.65 861.7V868H224.19V862.06C224.19 861.207 223.97 860.533 223.53 860.04C223.103 859.547 222.516 859.3 221.77 859.3C220.77 859.3 219.976 859.78 219.39 860.74V868H217.93Z" fill="white"/>
<path d="M167 895.957C169.943 891.317 172.525 889 174.747 889C178.08 889 180.185 892.688 181.413 897.695C182.587 902.477 182.247 909 178.08 909C176.223 909 173.667 906.392 171.167 902.913C169.576 900.721 168.182 898.394 167 895.957V895.957Z" stroke="white" stroke-width="2" stroke-linecap="round" stroke-linejoin="round"/>
<path d="M167 895.957C164.057 891.317 161.475 889 159.253 889C155.92 889 153.815 892.688 152.587 897.695C151.413 902.477 151.753 909 155.92 909C157.777 909 160.333 906.392 162.833 902.913C164.5 900.595 165.888 898.275 167 895.957Z" stroke="white" stroke-width="2" stroke-linecap="round" stroke-linejoin="round"/>
<g clip-path="url(#clip0_1_3)">
<path d="M221.996 466.273C223.235 466.663 224.423 467.201 225.532 467.877L225.461 467.836C226.673 468.374 227.721 469.005 228.676 469.745L228.642 469.72C228.688 469.859 228.715 470.017 228.715 470.185L228.713 470.258V470.256C228.679 471.239 228.461 472.163 228.092 473.004L228.11 472.955C227.581 474.016 226.699 474.835 225.619 475.27L225.587 475.281C224.47 475.865 223.235 476.187 221.976 476.223H221.962C219.557 475.914 217.233 475.15 215.114 473.973L215.213 474.023C212.962 473.004 210.915 471.583 209.172 469.832L209.17 469.83C207.269 467.85 205.545 465.708 204.018 463.427L203.91 463.257C202.395 461.277 201.516 458.884 201.389 456.394L201.387 456.364V456.08C201.421 455.016 201.671 453.97 202.121 453.006C202.572 452.042 203.214 451.18 204.009 450.472L204.016 450.465C204.507 449.976 205.168 449.696 205.861 449.684H205.863C206.094 449.69 206.317 449.709 206.532 449.741L206.502 449.736C206.702 449.766 206.933 449.784 207.171 449.789H207.178C207.512 449.757 207.847 449.839 208.127 450.023L208.122 450.02C208.368 450.291 208.556 450.619 208.668 450.978L208.672 450.997C208.862 451.47 209.253 452.512 209.846 454.122C210.155 454.842 210.458 455.729 210.701 456.641L210.733 456.785C210.567 457.583 210.137 458.301 209.511 458.823L209.504 458.827C208.687 459.692 208.278 460.242 208.278 460.477C208.287 460.67 208.351 460.856 208.464 461.014L208.462 461.011C209.348 462.844 210.573 464.491 212.073 465.867L212.085 465.879C213.655 467.293 215.415 468.481 217.314 469.408L217.45 469.467C217.682 469.618 217.95 469.704 218.226 469.717H218.231C218.587 469.717 219.227 469.143 220.151 467.994C221.076 466.845 221.69 466.271 221.994 466.271L221.996 466.273ZM214.784 485.101H214.835C217.844 485.106 220.821 484.482 223.575 483.27L223.435 483.325C228.835 481.047 233.044 476.837 235.267 471.583L235.322 471.438C236.445 468.888 237.098 465.913 237.098 462.787C237.098 459.661 236.445 456.687 235.267 453.994L235.322 454.136C233.044 448.737 228.835 444.527 223.58 442.304L223.435 442.249C220.885 441.126 217.91 440.473 214.784 440.473C211.658 440.473 208.684 441.126 205.991 442.304L206.133 442.249C200.734 444.527 196.524 448.737 194.301 453.992L194.246 454.136C193.065 456.876 192.46 459.831 192.47 462.815C192.463 467.533 193.973 472.128 196.776 475.923L196.733 475.864L193.926 484.143L202.524 481.407C206.116 483.826 210.351 485.113 214.681 485.101H214.789H214.784ZM214.784 436H214.86C218.591 436 222.138 436.784 225.344 438.198L225.177 438.131C231.651 440.874 236.7 445.923 239.376 452.223L239.443 452.397C240.79 455.461 241.574 459.034 241.574 462.79C241.574 466.546 240.79 470.118 239.376 473.352L239.443 473.182C236.7 479.656 231.651 484.705 225.351 487.381L225.177 487.448C222.136 488.795 218.588 489.579 214.858 489.579H214.78H214.784H214.663C209.944 489.579 205.515 488.339 201.683 486.169L201.813 486.238L186.998 491L191.831 476.611C189.308 472.461 187.981 467.694 187.995 462.838C187.995 459.066 188.778 455.477 190.192 452.225L190.126 452.397C192.869 445.923 197.918 440.874 204.217 438.198L204.392 438.131C207.647 436.713 211.161 435.988 214.711 436H214.787H214.782H214.784Z" fill="#FFFBFB"/>
</g>
<defs>
<clipPath id="clip0_1_3">
<rect width="55" height="55" fill="white" transform="translate(187 436)"/>
</clipPath>
</defs>
</svg>
